<?xml version="1.0" encoding="UTF-8"?>
<svg width="20px" height="20px" viewBox="0 0 20 20" version="1.1" xmlns="http://www.w3.org/2000/svg" xmlns:xlink="http://www.w3.org/1999/xlink">
    <!-- Generator: Sketch 59.1 (86144) - https://sketch.com -->
    <title>Icon /  Outline - Thin / Account</title>
    <desc>Created with Sketch.</desc>
    <defs>
        <path d="M13.167,11.667 C15.0391424,11.667 16.556,13.1838576 16.556,15.056 L16.556,15.056 L16.556,16.5 C16.556,16.7761424 16.3321424,17 16.056,17 C15.7798576,17 15.556,16.7761424 15.556,16.5 L15.556,16.5 L15.556,15.056 C15.556,13.7361424 14.4868576,12.667 13.167,12.667 L13.167,12.667 L7.39,12.667 C6.06989806,12.667 5,13.7363866 5,15.056 L5,15.056 L5,16.5 C5,16.7761424 4.77614237,17 4.5,17 C4.22385763,17 4,16.7761424 4,16.5 L4,16.5 L4,15.056 C4,13.1839948 5.51772031,11.667 7.39,11.667 L7.39,11.667 Z M10.2787,3 C12.1508424,3 13.6677,4.51685763 13.6677,6.389 C13.6677,8.26046103 12.1505238,9.778 10.2787,9.778 C8.40687619,9.778 6.8897,8.26046103 6.8897,6.389 C6.8897,4.51685763 8.40655763,3 10.2787,3 Z M10.2787,4 C8.95884237,4 7.8897,5.06914237 7.8897,6.389 C7.8897,7.70822979 8.95921447,8.778 10.2787,8.778 C11.5981855,8.778 12.6677,7.70822979 12.6677,6.389 C12.6677,5.06914237 11.5985576,4 10.2787,4 Z" id="path-1"></path>
    </defs>
    <g id="Icon-/--Outline---Thin-/-Account" stroke="none" stroke-width="1" fill="none" fill-rule="evenodd">
        <mask id="mask-2" fill="white">
            <use xlink:href="#path-1"></use>
        </mask>
        <use id="Icon" fill="#6D6D6D" fill-rule="nonzero" xlink:href="#path-1"></use>
        <g id="CK-/-Basic-/-Colour-/-Black" mask="url(#mask-2)" fill="#000000">
            <rect id="Color" x="0" y="0" width="20" height="20"></rect>
        </g>
    </g>
</svg>