<?xml version="1.0" encoding="UTF-8"?>
<svg width="20px" height="20px" viewBox="0 0 20 20" version="1.1" xmlns="http://www.w3.org/2000/svg" xmlns:xlink="http://www.w3.org/1999/xlink">
    <!-- Generator: Sketch 59.1 (86144) - https://sketch.com -->
    <title>Icon /  Outline - Thin / Calendar</title>
    <desc>Created with Sketch.</desc>
    <defs>
        <path d="M12.7972,3 C13.0733424,3 13.2972,3.22385763 13.2972,3.5 L13.2972,3.5 L13.297,4.595 L14.393,4.5958 C15.5502363,4.5958 16.489,5.53375128 16.489,6.6908 L16.489,14.9878 C16.489,16.1449424 15.5501424,17.0838 14.393,17.0838 L6.096,17.0838 C4.93885763,17.0838 4,16.1449424 4,14.9878 L4,6.6908 C4,5.53375128 4.93876371,4.5958 6.096,4.5958 L7.191,4.595 L7.1917,3.5 C7.1917,3.25454011 7.36857516,3.05039163 7.60182437,3.00805567 L7.6917,3 C7.96784237,3 8.1917,3.22385763 8.1917,3.5 L8.1917,3.5 L8.191,4.595 L12.297,4.595 L12.2972,3.5 C12.2972,3.25454011 12.4740752,3.05039163 12.7073244,3.00805567 Z M15.489,9.105 L5,9.105 L5,14.9878 C5,15.5926576 5.49114237,16.0838 6.096,16.0838 L14.393,16.0838 C14.9978576,16.0838 15.489,15.5926576 15.489,14.9878 L15.489,9.105 Z M7.191,5.595 L6.096,5.5958 C5.49085474,5.5958 5,6.08622994 5,6.6908 L5,8.105 L15.489,8.105 L15.489,6.6908 C15.489,6.08622994 14.9981453,5.5958 14.393,5.5958 L13.297,5.595 L13.2972,6.053 C13.2972,6.29845989 13.1203248,6.50260837 12.8870756,6.54494433 L12.7972,6.553 C12.5210576,6.553 12.2972,6.32914237 12.2972,6.053 L12.2972,6.053 L12.297,5.595 L8.191,5.595 L8.1917,6.053 C8.1917,6.29845989 8.01482484,6.50260837 7.78157563,6.54494433 L7.6917,6.553 C7.41555763,6.553 7.1917,6.32914237 7.1917,6.053 L7.1917,6.053 L7.191,5.595 Z" id="path-1"></path>
    </defs>
    <g id="Icon-/--Outline---Thin-/-Calendar" stroke="none" stroke-width="1" fill="none" fill-rule="evenodd">
        <mask id="mask-2" fill="white">
            <use xlink:href="#path-1"></use>
        </mask>
        <use id="Icon" fill="#6D6D6D" fill-rule="nonzero" xlink:href="#path-1"></use>
        <g id="CK-/-Basic-/-Colour-/-Black" mask="url(#mask-2)" fill="#000000">
            <rect id="Color" x="0" y="0" width="20" height="20"></rect>
        </g>
    </g>
</svg>