<?xml version="1.0" encoding="UTF-8"?>
<svg width="20px" height="20px" viewBox="0 0 20 20" version="1.1" xmlns="http://www.w3.org/2000/svg" xmlns:xlink="http://www.w3.org/1999/xlink">
    <!-- Generator: Sketch 59.1 (86144) - https://sketch.com -->
    <title>Icon /  Outline - Thin / Files</title>
    <desc>Created with Sketch.</desc>
    <defs>
        <path d="M11.6184,2 C11.6473644,2 11.6760698,2.00251317 11.7042244,2.00741875 C11.712073,2.00866323 11.7195058,2.01012804 11.7268776,2.01175555 C11.746152,2.01617529 11.7654999,2.02170605 11.7844321,2.02837132 C11.7947731,2.03179035 11.8049879,2.03576676 11.8150334,2.04006265 C11.8301157,2.04672731 11.8451661,2.054065 11.8598298,2.06215001 C11.8706828,2.06793915 11.8808438,2.0740447 11.890762,2.08049244 C11.9016672,2.08775735 11.9127151,2.09556882 11.9234551,2.10383924 C11.9368461,2.11398227 11.9495177,2.12480058 11.9616199,2.13621612 C11.9650321,2.13962552 11.9685152,2.14300844 11.9719534,2.14644661 L15.8539534,6.02844661 L15.8634228,6.03796408 C15.8754722,6.05066725 15.8868615,6.06400269 15.8975358,6.07791547 L15.8539534,6.02844661 C15.8780252,6.05251844 15.8993891,6.07879203 15.917849,6.10679402 C15.9258646,6.11852877 15.9331499,6.13063729 15.9399234,6.14306504 C15.9457024,6.15423913 15.9514641,6.1658759 15.9567639,6.17771579 C15.9637001,6.19244281 15.9696088,6.20754721 15.9747845,6.22298779 C15.9781108,6.23393735 15.9813601,6.24485648 15.9842354,6.25588634 C15.9949996,6.2959532 16.0006,6.33832258 16.0006,6.382 L15.9931575,6.29719346 C15.997947,6.32502198 16.0004,6.35338454 16.0004,6.382 L16.0004,15.441 C16.0004,15.7171424 15.7765424,15.941 15.5004,15.941 L14.06,15.941 L14.06,17.382 C14.06,17.6274599 13.8831248,17.8316084 13.6498756,17.8739443 L13.56,17.882 L4.5,17.882 C4.22385763,17.882 4,17.6581424 4,17.382 L4,17.382 L4,4.441 C4,4.16485763 4.22385763,3.941 4.5,3.941 L4.5,3.941 L5.941,3.941 L5.9414,2.5 C5.9414,2.22385763 6.16525763,2 6.4414,2 L11.6184,2 Z M5.941,4.941 L5,4.941 L5,16.882 L13.06,16.882 L13.06,15.941 L6.4414,15.941 C6.16525763,15.941 5.9414,15.7171424 5.9414,15.441 L5.941,4.941 Z M11.118,3 L6.9414,3 L6.941,4.431 L6.942,4.441 C6.942,4.44444747 6.94196511,4.44788679 6.94189566,4.45131763 L6.9414,14.941 L15.0004,14.941 L15,6.882 L11.6186,6.882 C11.3731401,6.882 11.1689916,6.70512484 11.1266557,6.47187563 L11.1186,6.382 L11.118,3 Z M12.118,3.707 L12.1186,5.882 L14.293,5.882 L12.118,3.707 Z" id="path-1"></path>
    </defs>
    <g id="Icon-/--Outline---Thin-/-Files" stroke="none" stroke-width="1" fill="none" fill-rule="evenodd">
        <mask id="mask-2" fill="white">
            <use xlink:href="#path-1"></use>
        </mask>
        <use id="Icon" fill="#6D6D6D" fill-rule="nonzero" xlink:href="#path-1"></use>
        <g id="CK-/-Basic-/-Colour-/-Black" mask="url(#mask-2)" fill="#000000">
            <rect id="Color" x="0" y="0" width="20" height="20"></rect>
        </g>
    </g>
</svg>