<?xml version="1.0" encoding="UTF-8"?>
<svg width="20px" height="20px" viewBox="0 0 20 20" version="1.1" xmlns="http://www.w3.org/2000/svg" xmlns:xlink="http://www.w3.org/1999/xlink">
    <!-- Generator: Sketch 59.1 (86144) - https://sketch.com -->
    <title>Icon /  Outline - Thin / File</title>
    <desc>Created with Sketch.</desc>
    <defs>
        <path d="M10.687,3 C10.7159644,3 10.7446698,3.00251317 10.7728244,3.00741875 C10.780473,3.00866323 10.7879058,3.01012804 10.7952776,3.01175555 C10.814752,3.01617529 10.8340999,3.02170605 10.8530321,3.02837132 C10.8637797,3.0320035 10.8745823,3.03623305 10.8851944,3.04081971 C10.8992274,3.04702228 10.9128544,3.05365924 10.9261668,3.06090986 C10.9383627,3.06745005 10.9504712,3.07473542 10.9622322,3.08250443 C10.972392,3.08926598 10.9823493,3.0963652 10.9920551,3.10383924 C11.0046175,3.11349761 11.0167092,3.12377131 11.0282864,3.13458875 C11.0323641,3.13839719 11.0364901,3.14238332 11.0405534,3.14644661 L15.8525534,7.95844661 L15.8644113,7.97071357 C15.8752287,7.98229076 15.8855024,7.99438246 15.8951917,8.00694796 L15.8525534,7.95844661 C15.8766252,7.98251844 15.8979891,8.00879203 15.916449,8.03679402 C15.9242646,8.04852877 15.9315499,8.06063729 15.9383234,8.07306504 C15.9453408,8.08614565 15.9519777,8.09977256 15.9579828,8.11366987 C15.962767,8.12441775 15.9669965,8.13522028 15.9708538,8.14619807 C15.977294,8.16490006 15.9828247,8.18424798 15.9871784,8.20390902 C15.9949419,8.23858791 15.999,8.27482005 15.999,8.312 L15.9915813,8.22617558 C15.9964868,8.25433025 15.999,8.28303557 15.999,8.312 L15.999,16.802 C15.999,17.3242991 15.5739874,17.748 15.052,17.748 L4.947,17.748 C4.42418541,17.748 4,17.3244702 4,16.802 L4,3.946 C4,3.42352979 4.42418541,3 4.947,3 L10.687,3 Z M10.186,4 L5,4 L5,16.748 L14.999,16.748 L14.999,8.812 L10.687,8.812 C10.4415401,8.812 10.2373916,8.63512484 10.1950557,8.40187563 L10.187,8.312 L10.186,4 Z M14.292,7.812 L11.186,4.707 L11.187,7.812 L14.292,7.812 Z" id="path-1"></path>
    </defs>
    <g id="Icon-/--Outline---Thin-/-File" stroke="none" stroke-width="1" fill="none" fill-rule="evenodd">
        <mask id="mask-2" fill="white">
            <use xlink:href="#path-1"></use>
        </mask>
        <use id="Icon" fill="#6D6D6D" fill-rule="nonzero" xlink:href="#path-1"></use>
        <g id="CK-/-Basic-/-Colour-/-Black" mask="url(#mask-2)" fill="#000000">
            <rect id="Color" x="0" y="0" width="20" height="20"></rect>
        </g>
    </g>
</svg>